<svg width="23" height="24" viewBox="0 0 23 24" fill="none" xmlns="http://www.w3.org/2000/svg">
<path fill-rule="evenodd" clip-rule="evenodd" d="M22.38 12.2576C22.38 11.454 22.3079 10.6813 22.174 9.93945H11.5V14.3234H17.5994C17.3367 15.7401 16.5382 16.9404 15.3379 17.744V20.5877H19.0006C21.1436 18.6146 22.38 15.7092 22.38 12.2576Z" fill="#4285F4"/>
<path fill-rule="evenodd" clip-rule="evenodd" d="M11.5 23.3334C14.56 23.3334 17.1254 22.3185 19.0006 20.5876L15.3379 17.744C14.323 18.424 13.0248 18.8258 11.5 18.8258C8.54814 18.8258 6.04965 16.8321 5.15844 14.1534H1.37207V17.0897C3.23692 20.7937 7.06966 23.3334 11.5 23.3334Z" fill="#34A853"/>
<path fill-rule="evenodd" clip-rule="evenodd" d="M5.15845 14.1534C4.93179 13.4734 4.803 12.747 4.803 12.0001C4.803 11.2531 4.93179 10.5267 5.15845 9.84674V6.91037H1.37208C0.604505 8.44037 0.166626 10.1713 0.166626 12.0001C0.166626 13.8289 0.604505 15.5598 1.37208 17.0898L5.15845 14.1534Z" fill="#FBBC05"/>
<path fill-rule="evenodd" clip-rule="evenodd" d="M11.5 5.1743C13.1639 5.1743 14.6578 5.74612 15.8324 6.86915L19.083 3.61854C17.1203 1.78975 14.5548 0.666718 11.5 0.666718C7.06965 0.666718 3.23692 3.20642 1.37207 6.91036L5.15844 9.84673C6.04965 7.16794 8.54814 5.1743 11.5 5.1743Z" fill="#EA4335"/>
</svg>
