<svg width="64" height="81" viewBox="0 0 64 81" fill="none" xmlns="http://www.w3.org/2000/svg">
<path d="M32 57C40.824 57 48 49.824 48 41V17C48 8.13202 40.86 0.916016 32.084 0.916016C31.8025 0.917707 31.522 0.951254 31.248 1.01602C27.141 1.21514 23.2677 2.98543 20.4295 5.96062C17.5913 8.93581 16.0054 12.8882 16 17V41C16 49.824 23.176 57 32 57Z" fill="white"/>
<path d="M28 72.724V81H36V72.724C51.756 70.744 64 57.292 64 41H56C56 54.236 45.236 65 32 65C18.764 65 8 54.236 8 41H0C0 57.288 12.244 70.744 28 72.724Z" fill="white"/>
</svg>
